<svg xmlns="http://www.w3.org/2000/svg" viewBox="0 0 515.98 514.16">
  <g id="Layer_2" data-name="Layer 2">
    <g id="Layer_1-2" data-name="Layer 1">
      <polygon points="18.12 228.66 115.62 228.66 228.12 0 340.62 228.66 452.28 228.66 300.56 359.8 94.12 514.16 160.65 360.44 18.12 228.66" fill="#f5313b"/>
      <polygon points="300.56 359.8 228.12 317.66 160.65 360.44 173.66 282.48 115.62 228.66 195.62 228.66 228.12 148.66 260.62 228.66 340.62 228.66 286.85 281.97 300.56 359.8" fill="#fff"/>
      <path d="M42.85,263.35l.82-5.72a4.7,4.7,0,0,1,1.55-2.86L53,248a4.32,4.32,0,0,1,1.41-.85l9.11-3.48a4.58,4.58,0,0,1,1.67-.31h10a5.09,5.09,0,0,1,.77.06l6.3,1.05a4.68,4.68,0,0,1,2.55,1.31L86.09,247a4.7,4.7,0,0,1,1.3,4.15l-2.62,14.27L79.7,290.78c0,.13-.06.26-.1.39L72,317.31a4.38,4.38,0,0,1-.46,1.07l-8.32,14.09a5.12,5.12,0,0,1-.53.72L54,343a4.71,4.71,0,0,1-.78.7l-10.28,7.36a4.77,4.77,0,0,1-1.57.72l-11.85,3a4.56,4.56,0,0,1-1.16.15H15.63a4.7,4.7,0,0,1-2.47-.71l-7.58-4.7a4.72,4.72,0,0,1-1.75-1.95l-3.37-7a4.75,4.75,0,0,1-.46-2v-8.38a4.59,4.59,0,0,1,.24-1.48l2-6.12a4.65,4.65,0,0,1,1.55-2.2l5.39-4.22a4.72,4.72,0,0,1,3-1l7.8.25a4.64,4.64,0,0,1,2.54.84l4.35,3a4.76,4.76,0,0,1,1.79,2.46l.22.72a4.68,4.68,0,0,1-.63,4h0a4.69,4.69,0,0,0-.1,5.18l0,0a4.75,4.75,0,0,0,1.86,1.67l.45.23a4.71,4.71,0,0,0,4.75-.33l2.62-1.81a4.5,4.5,0,0,0,1-.88l6.83-8.32a4.7,4.7,0,0,0,.85-1.57L50,309.93a3.45,3.45,0,0,0,.12-.46l3.55-17.13,1.72-10.13a4.62,4.62,0,0,0,0-1.53l-1.21-7.54a4.67,4.67,0,0,0-3.8-3.87l-3.69-.65A4.69,4.69,0,0,1,42.85,263.35Z" fill="#ffe6e6"/>
      <path d="M335.13,258.06h0v-5.78l5.1-6.81,8.51-5.45,9.54-4.08h10.21l2.72,2-2.72,32.34-4.43,39.15h0a5.13,5.13,0,0,0,5.12,5.44h0a5.45,5.45,0,0,1,5.44,5.44v5.8L368.49,333l-11.23,4.76-10.9,2.39-7.49-2.73-3.74-5.1-1.36-6.13v-12.6l2.72-16.7,1.36-16.32,1.36-12.59.36-2.83A6.58,6.58,0,0,0,335.13,258.06Z" fill="#ffe6e6"/>
      <polygon points="446.53 261.72 432.92 261.72 428.15 256.62 428.15 249.13 433.94 242.32 443.13 237.21 453.68 232.45 463.21 232.45 472.06 237.21 476.15 242.32 479.55 256.28 482.28 271.94 483.98 283.17 489.43 276.02 493.85 265.47 493.85 257.81 491.81 250.49 485.68 246.4 480.57 244.02 481.25 236.53 486.36 230.75 491.81 228.02 499.98 228.02 509.17 229.72 513.94 234.49 515.98 242.32 515.98 255.6 510.53 271.25 502.02 285.89 490.79 300.53 477.17 314.15 464.23 326.75 445.51 337.64 431.55 339.68 416.23 333.55 412.15 326.06 412.15 315.85 416.23 310.06 422.7 307.34 431.89 307.68 437.68 312.11 441.43 316.19 450.28 312.11 454.36 304.62 456.06 298.15 456.4 286.92 453 271.6 450.62 265.13 446.53 261.72" fill="#ffe6e6"/>
      <path d="M79.11,229.42l-7.88,1.17a9.33,9.33,0,0,1-2.42,0l-5-.53a9.55,9.55,0,0,1-2.67-.69l-2.6-1.07a10.58,10.58,0,0,1-3.53-2.43h0a12.08,12.08,0,0,1-3-5.64l-.63-2.79a12.71,12.71,0,0,1-.19-4.56l.48-3.54a12.84,12.84,0,0,1,1-3.46l1.43-3.17a12.28,12.28,0,0,1,2-3l1.28-1.41a10.75,10.75,0,0,1,2.43-2l2.79-1.68a10.55,10.55,0,0,1,1.87-.87L69.77,192c.31-.11.62-.2.94-.28l3.24-.76a9.45,9.45,0,0,1,4.33,0l2.49.57a9.88,9.88,0,0,1,2.71,1.07l3.44,2a10.89,10.89,0,0,1,1.77,1.28l1.72,1.54A11.87,11.87,0,0,1,94.09,204l.3,1.56a12.84,12.84,0,0,1,.11,4.15l-.4,2.89a12.33,12.33,0,0,1-1.76,4.9L90.72,220a10.87,10.87,0,0,1-.74,1l-2.92,3.68a11.14,11.14,0,0,1-3,2.63l-1.46.84A9.86,9.86,0,0,1,79.11,229.42Z" fill="#ffe6e6"/>
      <path d="M375.74,257.73h0V252l5.11-6.81,8.51-5.45,9.53-4.08h10.22l2.72,2L409.11,270l-4.43,39.15h0a5.13,5.13,0,0,0,5.12,5.45h0a5.43,5.43,0,0,1,5.43,5.43v5.8l-6.12,6.81-11.24,4.76L387,339.78l-7.49-2.73-3.75-5.1-1.36-6.13v-12.6l2.73-16.7,1.36-16.32,1.36-12.59.35-2.83A6.57,6.57,0,0,0,375.74,257.73Z" fill="#ffe6e6"/>
    </g>
  </g>
</svg>
