<svg xmlns="http://www.w3.org/2000/svg" viewBox="0 0 425.95 373.64">
  <g id="Jolly_astralis_logo" data-name="Jolly_astralis_logo">
    <polygon points="26.52 166.16 97.38 166.16 179.13 0 260.88 166.16 342.02 166.16 231.77 261.47 81.75 373.63 130.1 261.93 26.52 166.16" fill="#f5313b"/>
    <polygon points="231.77 261.47 179.13 230.84 130.1 261.93 139.56 205.27 97.38 166.16 155.51 166.16 179.13 108.03 202.75 166.16 260.88 166.16 221.81 204.9 231.77 261.47" fill="#ffffff"/>
    <path d="M43.26,161.85c.4-15.08,20.3-21.64,33.1-20,23.15-.25,8.66,32.27,3.75,47.4-5.55,17.07-12.27,41-26.5,52.93C34,262-11.47,256.4,2.68,221.12c4.75-8.55,17.73-10,24.66-3.28,5.06,4-4.06,18.29,8.37,14,16.12-10.82,17-35.26,20.06-52.64C57,163.84,44.63,171.33,43.26,161.85Z" fill="#ffffff"/>
    <path d="M80.52,135.93c-31.29,10.6-38.6-30.77-9.34-37.47C97.8,90.28,104.87,128.56,80.52,135.93Z" fill="#ffffff"/>
    <path d="M302.15,164.24c-1.84-12.18,14.08-18.28,23.15-22.13,2.53.38,11.43-1.06,12.93,2-1.19,17.57-5,53.86-7.14,71.48-.62,7.47,10.89,3.49,10.55,10.89,2.26,9.52-10.28,14.81-17.36,17.37C275.35,257.45,319.49,180.39,302.15,164.24Z" fill="#ffffff"/>
    <path d="M355.94,172.23c-46.51,2.49,5.11-44,25.53-24.51,9.36,11.4,8.72,32,11.92,46,11-11.21,16.11-34.3-3.41-39.15.95-30.45,63.49-21.26,21.45,41.87-14.37,19.44-34.49,41.06-56.51,51.74-17.66,6.52-44.93-7.84-29.28-27.57,8.71-5.53,19.67-2.2,25.19,6.13C372.14,220.81,368.48,184.72,355.94,172.23Z" fill="#ffffff"/>
    <path d="M263.08,164c-1.84-12.18,14.08-18.28,23.15-22.13,2.53.38,11.43-1.07,12.94,2-1.2,17.58-5,53.87-7.15,71.49-.62,7.47,10.9,3.48,10.55,10.88,2.26,9.52-10.28,14.82-17.36,17.38C236.28,257.22,280.42,180.15,263.08,164Z" fill="#ffffff"/>
  </g>
</svg>
