<svg xmlns="http://www.w3.org/2000/svg" viewBox="0 0 444.98 373.64">
  <g id="Layer_2" data-name="Layer 2">
    <g id="Layer_1-2" data-name="Layer 1">
      <polygon points="25.12 166.16 95.97 166.16 177.72 0 259.48 166.16 340.62 166.16 230.37 261.47 80.35 373.63 128.69 261.93 25.12 166.16" fill="#f5313b"/>
      <polygon points="230.37 261.47 177.72 230.84 128.69 261.93 138.15 205.27 95.97 166.16 154.1 166.16 177.72 108.03 201.34 166.16 259.48 166.16 220.4 204.9 230.37 261.47" fill="#fff"/>
      <path d="M42.85,179.85l.82-5.71a4.67,4.67,0,0,1,1.55-2.86L53,164.46a4.7,4.7,0,0,1,1.41-.85l9.11-3.48a4.8,4.8,0,0,1,1.67-.31h10a5.12,5.12,0,0,1,.77.07l6.3,1.05a4.68,4.68,0,0,1,2.55,1.31l1.28,1.28a4.72,4.72,0,0,1,1.3,4.16L84.77,182,79.7,207.29c0,.13-.06.26-.1.39L72,233.81a4.29,4.29,0,0,1-.46,1.08L63.21,249a4.18,4.18,0,0,1-.53.72L54,259.51a4.77,4.77,0,0,1-.78.71l-10.28,7.35a4.79,4.79,0,0,1-1.57.73l-11.85,3a5,5,0,0,1-1.16.14H15.63a4.69,4.69,0,0,1-2.47-.7l-7.58-4.7a4.78,4.78,0,0,1-1.75-1.95l-3.37-7a4.78,4.78,0,0,1-.46-2v-8.39a4.68,4.68,0,0,1,.24-1.48l2-6.11a4.73,4.73,0,0,1,1.55-2.21l5.39-4.21a4.61,4.61,0,0,1,3-1l7.8.24a4.65,4.65,0,0,1,2.54.85l4.35,3a4.72,4.72,0,0,1,1.79,2.46L29,239a4.69,4.69,0,0,1-.63,4.05h0a4.67,4.67,0,0,0-.1,5.17l0,0a4.7,4.7,0,0,0,1.86,1.68l.45.22a4.66,4.66,0,0,0,4.75-.33l2.62-1.8a4.82,4.82,0,0,0,1-.89l6.83-8.32a4.65,4.65,0,0,0,.85-1.56L50,226.43a3.74,3.74,0,0,0,.12-.45l3.55-17.13,1.72-10.14a4.56,4.56,0,0,0,0-1.52l-1.21-7.54a4.66,4.66,0,0,0-3.8-3.87l-3.69-.66A4.69,4.69,0,0,1,42.85,179.85Z" fill="#ffe6e6"/>
      <path d="M79.11,145.93l-7.88,1.17a9.79,9.79,0,0,1-2.42.05l-5-.54a9.2,9.2,0,0,1-2.67-.68l-2.6-1.08a10.44,10.44,0,0,1-3.53-2.43h0a12,12,0,0,1-3-5.63l-.63-2.8a12.71,12.71,0,0,1-.19-4.56l.48-3.54a12.67,12.67,0,0,1,1-3.45l1.43-3.17a11.92,11.92,0,0,1,2-3l1.28-1.42a11,11,0,0,1,2.43-2l2.79-1.67a9.89,9.89,0,0,1,1.87-.87l5.28-1.83c.31-.1.62-.2.94-.27l3.24-.77a9.45,9.45,0,0,1,4.33,0l2.49.57A9.55,9.55,0,0,1,83.48,109l3.44,2a10.89,10.89,0,0,1,1.77,1.28l1.72,1.54a11.87,11.87,0,0,1,3.68,6.63l.3,1.55a12.91,12.91,0,0,1,.11,4.16l-.4,2.89a12.38,12.38,0,0,1-1.76,4.9l-1.62,2.57a10.87,10.87,0,0,1-.74,1l-2.92,3.68a10.93,10.93,0,0,1-3,2.62l-1.46.84A9.68,9.68,0,0,1,79.11,145.93Z" fill="#ffe6e6"/>
      <path d="M264.13,164.57h0v-5.79l5.1-6.81,8.51-5.44,9.54-4.09h10.21l2.72,2-2.72,32.34L293.06,216h0a5.13,5.13,0,0,0,5.12,5.45h0a5.44,5.44,0,0,1,5.44,5.44v5.79l-6.13,6.81-11.23,4.77-10.9,2.38-7.49-2.72-3.74-5.11-1.36-6.13V220.06l2.72-16.7L266.85,187l1.36-12.6.36-2.83A6.57,6.57,0,0,0,264.13,164.57Z" fill="#ffe6e6"/>
      <path d="M304.74,164.24h0v-5.79l5.11-6.81,8.51-5.44,9.53-4.09h10.22l2.72,2-2.72,32.34-4.43,39.14h0a5.13,5.13,0,0,0,5.12,5.45h0a5.44,5.44,0,0,1,5.43,5.44v5.8l-6.12,6.8-11.24,4.77L316,246.28l-7.49-2.72-3.75-5.11-1.36-6.12v-12.6l2.73-16.7,1.36-16.32,1.36-12.6.35-2.83A6.56,6.56,0,0,0,304.74,164.24Z" fill="#ffe6e6"/>
      <polygon points="375.53 168.23 361.92 168.23 357.15 163.12 357.15 155.63 362.94 148.82 372.13 143.72 382.68 138.95 392.21 138.95 401.06 143.72 405.15 148.82 408.55 162.78 411.28 178.44 412.98 189.68 418.43 182.53 422.85 171.97 422.85 164.31 420.81 157 414.68 152.91 409.57 150.53 410.25 143.04 415.36 137.25 420.81 134.53 428.98 134.53 438.17 136.23 442.94 141 444.98 148.82 444.98 162.1 439.53 177.76 431.02 192.4 419.79 207.04 406.17 220.65 393.23 233.25 374.51 244.14 360.55 246.19 345.23 240.06 341.15 232.57 341.15 222.36 345.23 216.57 351.7 213.85 360.89 214.19 366.68 218.61 370.43 222.7 379.28 218.61 383.36 211.12 385.06 204.65 385.4 193.42 382 178.1 379.62 171.63 375.53 168.23" fill="#ffe6e6"/>
    </g>
  </g>
</svg>
